<mxfile host="app.diagrams.net" agent="Mozilla/5.0 (Windows NT 10.0; Win64; x64) AppleWebKit/537.36 (KHTML, like Gecko) Chrome/141.0.0.0 Safari/537.36" version="28.2.8">
  <diagram name="Page-1" id="wzsl2vGEpdu8hf6sgKOx">
    <mxGraphModel dx="1426" dy="777" grid="1" gridSize="10" guides="1" tooltips="1" connect="1" arrows="1" fold="1" page="1" pageScale="1" pageWidth="850" pageHeight="1100" math="0" shadow="0">
      <root>
        <mxCell id="0" />
        <mxCell id="1" parent="0" />
        <mxCell id="MHEsRJ4cLMGr0sjb_Qja-3" value="" style="edgeStyle=orthogonalEdgeStyle;rounded=0;orthogonalLoop=1;jettySize=auto;html=1;" edge="1" parent="1" source="MHEsRJ4cLMGr0sjb_Qja-1" target="MHEsRJ4cLMGr0sjb_Qja-2">
          <mxGeometry relative="1" as="geometry" />
        </mxCell>
        <mxCell id="MHEsRJ4cLMGr0sjb_Qja-1" value="Data/Docs/Book" style="rounded=0;whiteSpace=wrap;html=1;" vertex="1" parent="1">
          <mxGeometry x="350" y="80" width="120" height="60" as="geometry" />
        </mxCell>
        <mxCell id="MHEsRJ4cLMGr0sjb_Qja-9" value="" style="edgeStyle=orthogonalEdgeStyle;rounded=0;orthogonalLoop=1;jettySize=auto;html=1;" edge="1" parent="1" source="MHEsRJ4cLMGr0sjb_Qja-2" target="MHEsRJ4cLMGr0sjb_Qja-5">
          <mxGeometry relative="1" as="geometry" />
        </mxCell>
        <mxCell id="MHEsRJ4cLMGr0sjb_Qja-2" value="Extract All Docs" style="rounded=0;whiteSpace=wrap;html=1;" vertex="1" parent="1">
          <mxGeometry x="350" y="180" width="120" height="60" as="geometry" />
        </mxCell>
        <mxCell id="MHEsRJ4cLMGr0sjb_Qja-13" style="edgeStyle=orthogonalEdgeStyle;rounded=0;orthogonalLoop=1;jettySize=auto;html=1;entryX=0;entryY=0.5;entryDx=0;entryDy=0;" edge="1" parent="1" source="MHEsRJ4cLMGr0sjb_Qja-4" target="MHEsRJ4cLMGr0sjb_Qja-12">
          <mxGeometry relative="1" as="geometry" />
        </mxCell>
        <mxCell id="MHEsRJ4cLMGr0sjb_Qja-4" value="Chunk 1" style="rounded=0;whiteSpace=wrap;html=1;" vertex="1" parent="1">
          <mxGeometry x="150" y="310" width="120" height="60" as="geometry" />
        </mxCell>
        <mxCell id="MHEsRJ4cLMGr0sjb_Qja-5" value="Chunk 2" style="rounded=0;whiteSpace=wrap;html=1;" vertex="1" parent="1">
          <mxGeometry x="350" y="300" width="120" height="60" as="geometry" />
        </mxCell>
        <mxCell id="MHEsRJ4cLMGr0sjb_Qja-15" style="edgeStyle=orthogonalEdgeStyle;rounded=0;orthogonalLoop=1;jettySize=auto;html=1;entryX=1;entryY=0.5;entryDx=0;entryDy=0;" edge="1" parent="1" source="MHEsRJ4cLMGr0sjb_Qja-6" target="MHEsRJ4cLMGr0sjb_Qja-12">
          <mxGeometry relative="1" as="geometry" />
        </mxCell>
        <mxCell id="MHEsRJ4cLMGr0sjb_Qja-6" value="Chunk 3" style="rounded=0;whiteSpace=wrap;html=1;" vertex="1" parent="1">
          <mxGeometry x="560" y="310" width="120" height="60" as="geometry" />
        </mxCell>
        <mxCell id="MHEsRJ4cLMGr0sjb_Qja-7" style="edgeStyle=orthogonalEdgeStyle;rounded=0;orthogonalLoop=1;jettySize=auto;html=1;entryX=0.583;entryY=-0.067;entryDx=0;entryDy=0;entryPerimeter=0;" edge="1" parent="1" source="MHEsRJ4cLMGr0sjb_Qja-2" target="MHEsRJ4cLMGr0sjb_Qja-4">
          <mxGeometry relative="1" as="geometry" />
        </mxCell>
        <mxCell id="MHEsRJ4cLMGr0sjb_Qja-11" style="edgeStyle=orthogonalEdgeStyle;rounded=0;orthogonalLoop=1;jettySize=auto;html=1;entryX=0.425;entryY=-0.033;entryDx=0;entryDy=0;entryPerimeter=0;" edge="1" parent="1" source="MHEsRJ4cLMGr0sjb_Qja-2" target="MHEsRJ4cLMGr0sjb_Qja-6">
          <mxGeometry relative="1" as="geometry" />
        </mxCell>
        <mxCell id="MHEsRJ4cLMGr0sjb_Qja-22" value="" style="edgeStyle=orthogonalEdgeStyle;rounded=0;orthogonalLoop=1;jettySize=auto;html=1;" edge="1" parent="1" source="MHEsRJ4cLMGr0sjb_Qja-12" target="MHEsRJ4cLMGr0sjb_Qja-17">
          <mxGeometry relative="1" as="geometry">
            <Array as="points">
              <mxPoint x="420" y="550" />
              <mxPoint x="420" y="550" />
            </Array>
          </mxGeometry>
        </mxCell>
        <mxCell id="MHEsRJ4cLMGr0sjb_Qja-25" style="edgeStyle=orthogonalEdgeStyle;rounded=0;orthogonalLoop=1;jettySize=auto;html=1;entryX=0.5;entryY=0;entryDx=0;entryDy=0;" edge="1" parent="1" target="MHEsRJ4cLMGr0sjb_Qja-18">
          <mxGeometry relative="1" as="geometry">
            <mxPoint x="500" y="500" as="sourcePoint" />
            <mxPoint x="650" y="585" as="targetPoint" />
          </mxGeometry>
        </mxCell>
        <mxCell id="MHEsRJ4cLMGr0sjb_Qja-12" value="Embedding Model" style="rounded=0;whiteSpace=wrap;html=1;" vertex="1" parent="1">
          <mxGeometry x="350" y="450" width="150" height="70" as="geometry" />
        </mxCell>
        <mxCell id="MHEsRJ4cLMGr0sjb_Qja-14" style="edgeStyle=orthogonalEdgeStyle;rounded=0;orthogonalLoop=1;jettySize=auto;html=1;entryX=0.4;entryY=0.029;entryDx=0;entryDy=0;entryPerimeter=0;" edge="1" parent="1" source="MHEsRJ4cLMGr0sjb_Qja-5" target="MHEsRJ4cLMGr0sjb_Qja-12">
          <mxGeometry relative="1" as="geometry" />
        </mxCell>
        <mxCell id="MHEsRJ4cLMGr0sjb_Qja-27" style="edgeStyle=orthogonalEdgeStyle;rounded=0;orthogonalLoop=1;jettySize=auto;html=1;entryX=0;entryY=0.5;entryDx=0;entryDy=0;" edge="1" parent="1" source="MHEsRJ4cLMGr0sjb_Qja-16" target="MHEsRJ4cLMGr0sjb_Qja-26">
          <mxGeometry relative="1" as="geometry" />
        </mxCell>
        <mxCell id="MHEsRJ4cLMGr0sjb_Qja-16" value="Vector Embedding" style="rounded=0;whiteSpace=wrap;html=1;" vertex="1" parent="1">
          <mxGeometry x="150" y="570" width="120" height="60" as="geometry" />
        </mxCell>
        <mxCell id="MHEsRJ4cLMGr0sjb_Qja-28" style="edgeStyle=orthogonalEdgeStyle;rounded=0;orthogonalLoop=1;jettySize=auto;html=1;entryX=0.5;entryY=0;entryDx=0;entryDy=0;" edge="1" parent="1" source="MHEsRJ4cLMGr0sjb_Qja-17" target="MHEsRJ4cLMGr0sjb_Qja-26">
          <mxGeometry relative="1" as="geometry" />
        </mxCell>
        <mxCell id="MHEsRJ4cLMGr0sjb_Qja-17" value="Vector Embedding" style="rounded=0;whiteSpace=wrap;html=1;" vertex="1" parent="1">
          <mxGeometry x="370" y="570" width="120" height="60" as="geometry" />
        </mxCell>
        <mxCell id="MHEsRJ4cLMGr0sjb_Qja-29" style="edgeStyle=orthogonalEdgeStyle;rounded=0;orthogonalLoop=1;jettySize=auto;html=1;entryX=1;entryY=0.5;entryDx=0;entryDy=0;" edge="1" parent="1" source="MHEsRJ4cLMGr0sjb_Qja-18" target="MHEsRJ4cLMGr0sjb_Qja-26">
          <mxGeometry relative="1" as="geometry" />
        </mxCell>
        <mxCell id="MHEsRJ4cLMGr0sjb_Qja-18" value="Vector Embedding" style="rounded=0;whiteSpace=wrap;html=1;" vertex="1" parent="1">
          <mxGeometry x="590" y="570" width="120" height="60" as="geometry" />
        </mxCell>
        <mxCell id="MHEsRJ4cLMGr0sjb_Qja-19" style="edgeStyle=orthogonalEdgeStyle;rounded=0;orthogonalLoop=1;jettySize=auto;html=1;entryX=0.442;entryY=-0.05;entryDx=0;entryDy=0;entryPerimeter=0;" edge="1" parent="1" source="MHEsRJ4cLMGr0sjb_Qja-12" target="MHEsRJ4cLMGr0sjb_Qja-16">
          <mxGeometry relative="1" as="geometry">
            <Array as="points">
              <mxPoint x="203" y="500" />
            </Array>
          </mxGeometry>
        </mxCell>
        <mxCell id="MHEsRJ4cLMGr0sjb_Qja-31" style="edgeStyle=orthogonalEdgeStyle;rounded=0;orthogonalLoop=1;jettySize=auto;html=1;entryX=0.5;entryY=0;entryDx=0;entryDy=0;" edge="1" parent="1" source="MHEsRJ4cLMGr0sjb_Qja-26" target="MHEsRJ4cLMGr0sjb_Qja-30">
          <mxGeometry relative="1" as="geometry" />
        </mxCell>
        <mxCell id="MHEsRJ4cLMGr0sjb_Qja-26" value="Build Semantic Index" style="rounded=0;whiteSpace=wrap;html=1;" vertex="1" parent="1">
          <mxGeometry x="370" y="700" width="120" height="60" as="geometry" />
        </mxCell>
        <mxCell id="MHEsRJ4cLMGr0sjb_Qja-37" style="edgeStyle=orthogonalEdgeStyle;rounded=0;orthogonalLoop=1;jettySize=auto;html=1;entryX=0;entryY=0.5;entryDx=0;entryDy=0;" edge="1" parent="1" source="MHEsRJ4cLMGr0sjb_Qja-30" target="MHEsRJ4cLMGr0sjb_Qja-36">
          <mxGeometry relative="1" as="geometry" />
        </mxCell>
        <mxCell id="MHEsRJ4cLMGr0sjb_Qja-30" value="Knowledge Base/Vector DB" style="rounded=0;whiteSpace=wrap;html=1;" vertex="1" parent="1">
          <mxGeometry x="370" y="820" width="120" height="60" as="geometry" />
        </mxCell>
        <mxCell id="MHEsRJ4cLMGr0sjb_Qja-34" style="edgeStyle=orthogonalEdgeStyle;rounded=0;orthogonalLoop=1;jettySize=auto;html=1;entryX=0.5;entryY=0;entryDx=0;entryDy=0;" edge="1" parent="1" source="MHEsRJ4cLMGr0sjb_Qja-32" target="MHEsRJ4cLMGr0sjb_Qja-33">
          <mxGeometry relative="1" as="geometry" />
        </mxCell>
        <mxCell id="MHEsRJ4cLMGr0sjb_Qja-32" value="User Query/User Question" style="rounded=0;whiteSpace=wrap;html=1;" vertex="1" parent="1">
          <mxGeometry x="590" y="640" width="120" height="60" as="geometry" />
        </mxCell>
        <mxCell id="MHEsRJ4cLMGr0sjb_Qja-33" value="Query Embedding" style="rounded=0;whiteSpace=wrap;html=1;" vertex="1" parent="1">
          <mxGeometry x="590" y="740" width="120" height="60" as="geometry" />
        </mxCell>
        <mxCell id="MHEsRJ4cLMGr0sjb_Qja-35" style="edgeStyle=orthogonalEdgeStyle;rounded=0;orthogonalLoop=1;jettySize=auto;html=1;entryX=0.867;entryY=0;entryDx=0;entryDy=0;entryPerimeter=0;" edge="1" parent="1" source="MHEsRJ4cLMGr0sjb_Qja-33" target="MHEsRJ4cLMGr0sjb_Qja-30">
          <mxGeometry relative="1" as="geometry" />
        </mxCell>
        <mxCell id="MHEsRJ4cLMGr0sjb_Qja-36" value="Rank Result" style="rounded=0;whiteSpace=wrap;html=1;" vertex="1" parent="1">
          <mxGeometry x="590" y="820" width="120" height="60" as="geometry" />
        </mxCell>
        <mxCell id="MHEsRJ4cLMGr0sjb_Qja-38" value="LLM OpenAI/Gemini" style="rounded=0;whiteSpace=wrap;html=1;" vertex="1" parent="1">
          <mxGeometry x="720" y="740" width="120" height="60" as="geometry" />
        </mxCell>
        <mxCell id="MHEsRJ4cLMGr0sjb_Qja-39" style="edgeStyle=orthogonalEdgeStyle;rounded=0;orthogonalLoop=1;jettySize=auto;html=1;entryX=0.417;entryY=1;entryDx=0;entryDy=0;entryPerimeter=0;" edge="1" parent="1" source="MHEsRJ4cLMGr0sjb_Qja-36" target="MHEsRJ4cLMGr0sjb_Qja-38">
          <mxGeometry relative="1" as="geometry" />
        </mxCell>
        <mxCell id="MHEsRJ4cLMGr0sjb_Qja-40" style="edgeStyle=orthogonalEdgeStyle;rounded=0;orthogonalLoop=1;jettySize=auto;html=1;entryX=0.45;entryY=-0.017;entryDx=0;entryDy=0;entryPerimeter=0;" edge="1" parent="1" source="MHEsRJ4cLMGr0sjb_Qja-32" target="MHEsRJ4cLMGr0sjb_Qja-38">
          <mxGeometry relative="1" as="geometry" />
        </mxCell>
      </root>
    </mxGraphModel>
  </diagram>
</mxfile>
